# xmcd CD database file
# Copyright (C) 1997 Ti Kan
# 
# Track frame offsets:
#     150
#     13605
#     28225
#     41662
#     55752
#     70910
#     84542
#     96980
#     109590
#     123287
#     137732
#     151510
#     166437
#     178772
#     192832
#     206122
#     220625
#     235445
# 
# Disc length: 3332 seconds
# 
# Revision: 2
# Processed by: cddbd v1.4PL0 Copyright (c) Steve Scherf et al.
# Submitted via: Gronk 1.4
# 
DISCID=f70d0212
DTITLE=Lonnie Johnson - The Essential Lonnie Johnson
DYEAR=1900
DGENRE=blues
TTITLE0=Mr. Johnson's Blues
TTITLE1=Low Land Moan
TTITLE2=Away Down In The Alley Blues
TTITLE3=Uncle Ned Dont't Lose Your Head
TTITLE4=A Broken Heart That Never Smiles
TTITLE5=Have To Change Keys To Play These Blues
TTITLE6=Tin Can Alley Blues
TTITLE7=South Bound Water
TTITLE8=Stomping 'Em Along Slow
TTITLE9=Racketeer's Blues
TTITLE10=Sweet Potato Blues
TTITLE11=Bull Frog Moan
TTITLE12=There Is No Justice
TTITLE13=Roamin' Rambler Blues
TTITLE14=Blues in G
TTITLE15=Winnie The Wailer
TTITLE16=No More Trouble Now
TTITLE17=Guitar Blues
EXTD=
EXTT0=
EXTT1=
EXTT2=
EXTT3=
EXTT4=
EXTT5=
EXTT6=
EXTT7=
EXTT8=
EXTT9=
EXTT10=
EXTT11=
EXTT12=
EXTT13=
EXTT14=
EXTT15=
EXTT16=
EXTT17=
PLAYORDER=
